<?xml version="1.0" encoding="iso-8859-1"?>
<!-- Generator: Adobe Illustrator 19.0.0, SVG Export Plug-In . SVG Version: 6.00 Build 0)  -->
<svg version="1.1" id="Layer_1" xmlns="http://www.w3.org/2000/svg" xmlns:xlink="http://www.w3.org/1999/xlink" x="0px" y="0px"
	 viewBox="0 0 512 512" style="enable-background:new 0 0 512 512;" xml:space="preserve">
<circle style="fill:#324A5E;" cx="256" cy="256" r="256"/>
<path style="fill:#2B3B4E;" d="M266.516,511.767C403.022,506.251,512,393.861,512,256c0-8.302-0.41-16.508-1.183-24.607
	L405.98,126.555L268.698,273.87L143.084,148.256l-37.064,11.628L238.57,292.433L106.02,351.272L266.516,511.767z"/>
<path style="fill:#FFFFFF;" d="M261.172,376.685v-52.438h-10.343v52.438c-8.187,2.272-14.222,9.771-14.222,18.673
	c0,10.693,8.701,19.394,19.394,19.394c10.693,0,19.394-8.701,19.394-19.394C275.394,386.458,269.359,378.958,261.172,376.685z
	 M256,404.409c-4.991,0-9.051-4.06-9.051-9.051c0-4.991,4.06-9.051,9.051-9.051s9.051,4.06,9.051,9.051
	C265.051,400.35,260.991,404.409,256,404.409z"/>
<path style="fill:#D0D1D3;" d="M261.172,376.685v-52.438h-5.746v62.119c0.193-0.012,0.378-0.059,0.574-0.059
	c4.991,0,9.051,4.06,9.051,9.051c0,4.991-4.06,9.051-9.051,9.051c-0.197,0-0.381-0.045-0.574-0.059v10.373
	c0.193,0.005,0.381,0.029,0.574,0.029c10.693,0,19.394-8.701,19.394-19.394C275.394,386.458,269.359,378.958,261.172,376.685z"/>
<rect x="116.364" y="134.189" style="fill:#E9EFF4;" width="279.273" height="209.455"/>
<rect x="255.431" y="134.189" style="fill:#CFDBE6;" width="140.205" height="209.455"/>
<g>
	<rect x="106.02" y="317.94" style="fill:#05BEA6;" width="299.96" height="33.328"/>
	<rect x="106.02" y="126.552" style="fill:#05BEA6;" width="299.96" height="33.328"/>
</g>
<g>
	<rect x="255.431" y="317.94" style="fill:#2C9984;" width="150.549" height="33.328"/>
	<rect x="255.431" y="126.552" style="fill:#2C9984;" width="150.549" height="33.328"/>
</g>
<circle style="fill:#FFC61B;" cx="183.596" cy="238.916" r="56.889"/>
<path style="fill:#D35933;" d="M126.707,238.913c0-31.418,25.471-56.889,56.889-56.889v56.889H126.707z"/>
<g>
	<rect x="284.444" y="210.472" style="fill:#808183;" width="85.333" height="5.172"/>
	<rect x="284.444" y="230.503" style="fill:#808183;" width="85.333" height="5.172"/>
	<rect x="284.444" y="250.552" style="fill:#808183;" width="85.333" height="5.172"/>
</g>
<g>
</g>
<g>
</g>
<g>
</g>
<g>
</g>
<g>
</g>
<g>
</g>
<g>
</g>
<g>
</g>
<g>
</g>
<g>
</g>
<g>
</g>
<g>
</g>
<g>
</g>
<g>
</g>
<g>
</g>
</svg>
