<svg xmlns="http://www.w3.org/2000/svg" width="512" height="512" viewBox="0 0 575.284 575.284"><path d="M561.997 130.569L451.493 94.266c-.012-.012-.023-.012-.049-.012h.012s-1.762-.673-4.246-.416c-2.484.269-4.236 1.554-4.236 1.554l-61.945 40.454a9.9 9.9 0 0 0-4.492 8.311v110.809l-3.428-.257V75.71a9.912 9.912 0 0 0-6.818-9.425L165.971.483s-2.313-.734-4.456-.392c-2.57.416-4.443 1.775-4.443 1.775L10.645 106.298a9.893 9.893 0 0 0-4.174 8.078v370.726a9.917 9.917 0 0 0 5.153 8.69l146.476 80.27s1.518.894 3.599 1.15c2.081.245 3.599-.208 3.599-.208l200.32-50.575 85.215-21.506 110.479-27.896c4.393-1.102 7.479-5.067 7.479-9.608l.023-325.412a9.902 9.902 0 0 0-6.817-9.438zM36.361 438.271a3.295 3.295 0 0 1-1.408 2.705 3.304 3.304 0 0 1-1.885.601c-.392 0-.771-.062-1.151-.208l-8.556-3.146a3.322 3.322 0 0 1-2.167-3.108v-27.21a3.35 3.35 0 0 1 1.297-2.632 3.304 3.304 0 0 1 2.889-.562l8.556 2.374a3.332 3.332 0 0 1 2.412 3.195v27.992h.013zm0-55.973a3.29 3.29 0 0 1-1.2 2.546 3.32 3.32 0 0 1-2.105.759c-.208 0-.404-.024-.612-.062l-8.556-1.604a3.318 3.318 0 0 1-2.705-3.256V353.46a3.296 3.296 0 0 1 3.635-3.28l8.556.832a3.309 3.309 0 0 1 2.975 3.293v27.993h.012zm0-55.962c0 .882-.343 1.738-.967 2.351a3.323 3.323 0 0 1-2.325.954h-.024l-8.556-.061c-1.812-.024-3.292-1.493-3.292-3.317v-27.21a3.297 3.297 0 0 1 3.036-3.292l8.556-.71a3.26 3.26 0 0 1 2.509.856 3.298 3.298 0 0 1 1.065 2.436v27.993zm0-55.961a3.32 3.32 0 0 1-2.742 3.256l-8.556 1.481a3.297 3.297 0 0 1-2.692-.722 3.338 3.338 0 0 1-1.188-2.546v-27.209a3.314 3.314 0 0 1 2.46-3.195l8.556-2.264a3.327 3.327 0 0 1 2.864.587 3.298 3.298 0 0 1 1.273 2.619v27.993h.025zm0-55.961a3.312 3.312 0 0 1-2.203 3.121l-8.556 3.023a3.336 3.336 0 0 1-1.102.184 3.328 3.328 0 0 1-1.909-.6 3.337 3.337 0 0 1-1.396-2.705v-27.222c0-1.297.771-2.484 1.971-3.023l8.556-3.794a3.311 3.311 0 0 1 3.146.257 3.354 3.354 0 0 1 1.493 2.779v27.98zm0-55.962a3.318 3.318 0 0 1-1.75 2.926l-8.556 4.553a3.367 3.367 0 0 1-1.555.392 3.4 3.4 0 0 1-1.713-.478 3.303 3.303 0 0 1-1.604-2.828v-27.209a3.27 3.27 0 0 1 1.555-2.803l8.556-5.336a3.294 3.294 0 0 1 3.354-.086 3.304 3.304 0 0 1 1.702 2.889v27.98h.011zm28.85 290.431a3.296 3.296 0 0 1-1.408 2.705c-.563.392-1.236.6-1.897.6a3.12 3.12 0 0 1-1.139-.208l-10.196-3.758a3.306 3.306 0 0 1-2.167-3.097v-29.669c0-1.028.478-1.995 1.297-2.632a3.334 3.334 0 0 1 2.889-.551l10.184 2.84a3.301 3.301 0 0 1 2.423 3.182v30.588h.014zm0-61.163c0 .979-.44 1.909-1.2 2.546-.6.489-1.346.759-2.117.759-.208 0-.404-.024-.612-.062l-10.184-1.909a3.317 3.317 0 0 1-2.705-3.256v-29.657c0-.931.392-1.824 1.089-2.448a3.387 3.387 0 0 1 2.546-.845l10.196.992a3.31 3.31 0 0 1 2.987 3.305v30.575zm0-61.152a3.25 3.25 0 0 1-.979 2.338 3.322 3.322 0 0 1-2.326.955h-.024l-10.184-.073a3.322 3.322 0 0 1-3.292-3.317v-29.646a3.31 3.31 0 0 1 3.036-3.305l10.196-.832c.918-.086 1.824.232 2.509.856s1.065 1.506 1.065 2.424v30.6zm0-61.175a3.321 3.321 0 0 1-2.742 3.268l-10.196 1.75c-.196.037-.38.049-.563.049-.771 0-1.53-.281-2.142-.783a3.32 3.32 0 0 1-1.175-2.534v-29.658a3.329 3.329 0 0 1 2.46-3.207l10.196-2.681a3.264 3.264 0 0 1 2.852.587 3.312 3.312 0 0 1 1.285 2.62v30.587h.025zm0-61.163a3.295 3.295 0 0 1-2.215 3.121l-10.184 3.599a3.254 3.254 0 0 1-3.011-.416 3.305 3.305 0 0 1-1.396-2.705v-29.658c0-1.297.759-2.497 1.971-3.023l10.184-4.517a3.376 3.376 0 0 1 3.146.245 3.319 3.319 0 0 1 1.505 2.778v30.576zm0-61.151a3.298 3.298 0 0 1-1.75 2.913l-10.184 5.435a3.35 3.35 0 0 1-1.554.379 3.4 3.4 0 0 1-1.714-.465 3.32 3.32 0 0 1-1.604-2.827v-29.658c0-1.138.588-2.203 1.555-2.815l10.196-6.353a3.305 3.305 0 1 1 5.055 2.804v30.587zm34.762 318.582a3.303 3.303 0 0 1-3.293 3.318c-.392 0-.771-.073-1.151-.208l-12.35-4.541a3.324 3.324 0 0 1-2.167-3.109v-32.595c0-1.028.478-2.008 1.297-2.632.808-.624 1.885-.82 2.876-.551l12.362 3.428a3.305 3.305 0 0 1 2.412 3.182v33.709h.014zm0-67.418a3.33 3.33 0 0 1-1.2 2.547c-.6.489-1.346.759-2.105.759a3.24 3.24 0 0 1-.612-.062l-12.362-2.313A3.307 3.307 0 0 1 81 391.918v-32.595c0-.931.392-1.824 1.077-2.448a3.367 3.367 0 0 1 2.546-.845l12.35 1.212a3.31 3.31 0 0 1 2.987 3.305v33.696h.013zm0-67.43c0 .881-.343 1.738-.979 2.35a3.292 3.292 0 0 1-2.313.955h-.037l-12.35-.098a3.291 3.291 0 0 1-3.268-3.305v-32.62a3.284 3.284 0 0 1 3.023-3.28l12.362-1.016a3.275 3.275 0 0 1 2.509.856 3.272 3.272 0 0 1 1.065 2.424v33.733h-.012zm0-67.417a3.309 3.309 0 0 1-2.742 3.256l-12.363 2.142a3.32 3.32 0 0 1-2.692-.722 3.32 3.32 0 0 1-1.175-2.534v-32.595a3.299 3.299 0 0 1 2.46-3.194l12.35-3.256a3.264 3.264 0 0 1 2.852.587 3.321 3.321 0 0 1 1.297 2.619v33.697h.013zm0-67.431a3.3 3.3 0 0 1-2.203 3.121l-12.363 4.358a3.378 3.378 0 0 1-1.102.196 3.405 3.405 0 0 1-1.909-.612 3.323 3.323 0 0 1-1.383-2.705v-32.595c0-1.322.759-2.497 1.958-3.023l12.35-5.471a3.337 3.337 0 0 1 3.146.245 3.317 3.317 0 0 1 1.506 2.778v33.708zm0-67.418a3.297 3.297 0 0 1-1.75 2.913l-12.362 6.585a3.356 3.356 0 0 1-3.256-.086 3.318 3.318 0 0 1-1.604-2.827V98.525c0-1.139.587-2.203 1.555-2.803l12.35-7.699a3.345 3.345 0 0 1 3.366-.074 3.291 3.291 0 0 1 1.702 2.889v33.709zm42.693 352.818c0 1.09-.526 2.105-1.408 2.718-.575.392-1.236.6-1.897.6-.379 0-.759-.073-1.138-.208l-15.276-5.618a3.324 3.324 0 0 1-2.167-3.109v-36.182a3.33 3.33 0 0 1 1.298-2.631 3.311 3.311 0 0 1 2.876-.551l15.276 4.247a3.301 3.301 0 0 1 2.423 3.183v37.552h.013zm0-75.116c0 .991-.44 1.921-1.199 2.546a3.287 3.287 0 0 1-2.73.697l-15.276-2.864c-1.554-.281-2.693-1.652-2.693-3.256v-36.169c0-.931.392-1.824 1.089-2.448a3.279 3.279 0 0 1 2.534-.845l15.276 1.493a3.309 3.309 0 0 1 2.986 3.293v37.553h.013zm0-75.105a3.26 3.26 0 0 1-.979 2.351 3.322 3.322 0 0 1-2.326.955h-.024l-15.275-.123a3.301 3.301 0 0 1-3.281-3.305v-36.193a3.31 3.31 0 0 1 3.036-3.306l15.263-1.248a3.233 3.233 0 0 1 2.521.856 3.321 3.321 0 0 1 1.065 2.424v37.589zm0-75.129a3.323 3.323 0 0 1-2.754 3.269l-15.263 2.631a3.018 3.018 0 0 1-.575.049 3.293 3.293 0 0 1-3.305-3.292V218.49a3.314 3.314 0 0 1 2.46-3.207l15.275-4.002a3.304 3.304 0 0 1 2.852.575c.808.637 1.297 1.591 1.297 2.619v37.54h.013zm0-75.105a3.306 3.306 0 0 1-2.215 3.121l-15.275 5.386a3.408 3.408 0 0 1-1.102.196c-.673 0-1.334-.22-1.897-.612a3.305 3.305 0 0 1-1.396-2.705v-36.182a3.3 3.3 0 0 1 1.958-3.023l15.276-6.769a3.337 3.337 0 0 1 3.146.245 3.319 3.319 0 0 1 1.505 2.778v37.565zm0-75.117a3.285 3.285 0 0 1-1.762 2.913l-15.276 8.14a3.28 3.28 0 0 1-3.256-.086 3.32 3.32 0 0 1-1.604-2.827V73.739c0-1.138.588-2.203 1.555-2.815l15.275-9.51a3.294 3.294 0 0 1 3.354-.085 3.33 3.33 0 0 1 1.701 2.889v37.577h.013zm81.139 374.459c0 1.615-1.175 2.986-2.766 3.268l-35.251 5.974c-.196.024-.367.049-.551.049-.771 0-1.542-.27-2.142-.783a3.276 3.276 0 0 1-1.175-2.521v-38.752a3.292 3.292 0 0 1 2.876-3.269l35.263-4.504c.93-.135 1.885.171 2.607.783a3.292 3.292 0 0 1 1.126 2.484v37.271h.013zm0-74.566a3.283 3.283 0 0 1-3.023 3.28l-35.263 3.048c-.098.013-.196.013-.282.013-.82 0-1.628-.294-2.24-.857a3.33 3.33 0 0 1-1.077-2.436v-38.446a3.295 3.295 0 0 1 3.158-3.305l35.264-1.604a3.214 3.214 0 0 1 2.423.906 3.288 3.288 0 0 1 1.028 2.387v37.014h.012zm0-74.567a3.324 3.324 0 0 1-3.305 3.317l-35.251.122h-.012a3.268 3.268 0 0 1-2.338-.967 3.258 3.258 0 0 1-.967-2.325v-38.765c0-.894.367-1.75 1.016-2.374a3.278 3.278 0 0 1 2.412-.918l35.263 1.334a3.296 3.296 0 0 1 3.183 3.293v37.283zm0-74.578c0 .918-.379 1.812-1.065 2.424a3.363 3.363 0 0 1-2.252.881c-.086 0-.171-.012-.257-.012l-35.251-2.803a3.302 3.302 0 0 1-3.048-3.305v-38.74a3.3 3.3 0 0 1 1.114-2.473 3.254 3.254 0 0 1 2.595-.808l35.251 4.272a3.315 3.315 0 0 1 2.913 3.28v37.284zm0-74.566c0 .979-.429 1.897-1.175 2.521a3.29 3.29 0 0 1-2.142.795 3.71 3.71 0 0 1-.526-.037l-35.264-5.741a3.302 3.302 0 0 1-2.778-3.268v-38.739c0-1.004.44-1.934 1.224-2.571.759-.624 1.762-.869 2.754-.685l35.251 7.197a3.325 3.325 0 0 1 2.656 3.244v37.284zm0-74.566a3.31 3.31 0 0 1-1.273 2.607 3.393 3.393 0 0 1-2.044.71c-.257 0-.526-.037-.784-.098l-35.251-8.653a3.323 3.323 0 0 1-2.521-3.219V55.991c0-1.041.49-2.007 1.31-2.644a3.32 3.32 0 0 1 2.901-.539l35.251 10.123a3.307 3.307 0 0 1 2.399 3.183v37.295h.012zm63.085 362.157c0 1.615-1.175 2.986-2.766 3.268l-30.392 5.153a4.25 4.25 0 0 1-.551.037c-.771 0-1.53-.258-2.13-.771a3.304 3.304 0 0 1-1.187-2.521v-35.937a3.303 3.303 0 0 1 2.888-3.28l30.392-3.893c.942-.122 1.885.184 2.607.796a3.331 3.331 0 0 1 1.126 2.484v34.664h.013zm0-69.327a3.284 3.284 0 0 1-3.023 3.28l-30.392 2.631c-.098.013-.196.013-.282.013-.82 0-1.628-.306-2.24-.869a3.289 3.289 0 0 1-1.077-2.436v-35.912a3.323 3.323 0 0 1 3.17-3.317l30.392-1.358a3.198 3.198 0 0 1 2.423.905 3.31 3.31 0 0 1 1.028 2.387v34.676zm0-69.34a3.331 3.331 0 0 1-3.305 3.316l-30.392.099h-.012a3.297 3.297 0 0 1-3.317-3.293v-35.949c0-.894.367-1.762 1.016-2.374a3.254 3.254 0 0 1 2.424-.918l30.379 1.15a3.32 3.32 0 0 1 3.195 3.317v34.651h.012zm0-69.339c0 .918-.392 1.799-1.065 2.423a3.35 3.35 0 0 1-2.252.869c-.085 0-.184 0-.269-.012l-30.392-2.411a3.301 3.301 0 0 1-3.047-3.305v-35.9c0-.955.404-1.849 1.126-2.473.71-.637 1.64-.93 2.583-.808l30.392 3.685a3.306 3.306 0 0 1 2.913 3.28v34.651h.011zm0-69.34c0 .967-.429 1.885-1.175 2.521a3.28 3.28 0 0 1-2.142.784c-.184 0-.354-.012-.526-.049l-30.392-4.933a3.323 3.323 0 0 1-2.791-3.268v-35.937c0-.992.453-1.934 1.224-2.558a3.336 3.336 0 0 1 2.754-.686l30.392 6.206a3.305 3.305 0 0 1 2.656 3.244v34.676zm0-69.327a3.294 3.294 0 0 1-1.261 2.595c-.6.465-1.322.71-2.044.71-.27 0-.526-.024-.796-.098l-30.392-7.454a3.302 3.302 0 0 1-2.521-3.219V75.502c0-1.041.489-2.02 1.322-2.644a3.298 3.298 0 0 1 2.889-.539l30.392 8.727a3.307 3.307 0 0 1 2.399 3.183v34.664h.012zm54.81 337.383a3.321 3.321 0 0 1-2.754 3.268l-26.475 4.479c-.195.037-.367.05-.562.05-.76 0-1.531-.27-2.131-.771a3.321 3.321 0 0 1-1.174-2.533V427.28a3.313 3.313 0 0 1 2.875-3.28l26.477-3.378a3.357 3.357 0 0 1 2.605.783 3.309 3.309 0 0 1 1.127 2.484v32.388h.012zm0-64.787a3.294 3.294 0 0 1-3.023 3.293l-26.475 2.289c-.098.012-.195.012-.293.012a3.34 3.34 0 0 1-2.24-.869 3.268 3.268 0 0 1-1.064-2.423v-33.489a3.304 3.304 0 0 1 3.158-3.305l26.475-1.188a3.235 3.235 0 0 1 2.424.906 3.29 3.29 0 0 1 1.027 2.387v32.387h.011zm0-64.786c0 1.824-1.469 3.293-3.305 3.317l-26.475.086h-.012a3.298 3.298 0 0 1-2.326-.955 3.305 3.305 0 0 1-.967-2.338v-33.501c0-.894.355-1.763 1.016-2.374a3.258 3.258 0 0 1 2.412-.918l26.475 1.003a3.313 3.313 0 0 1 3.182 3.293v32.387zm0-64.786a3.3 3.3 0 0 1-1.064 2.436 3.303 3.303 0 0 1-2.252.869c-.086 0-.172 0-.258-.012l-26.475-2.105a3.315 3.315 0 0 1-3.035-3.293v-33.488c0-.942.404-1.836 1.113-2.473a3.287 3.287 0 0 1 2.596-.795l26.463 3.207a3.297 3.297 0 0 1 2.912 3.28v32.374zm0-64.786c0 .979-.428 1.897-1.162 2.521a3.333 3.333 0 0 1-2.154.783c-.172 0-.342-.012-.525-.049l-26.477-4.309a3.301 3.301 0 0 1-2.777-3.268v-33.477c0-1.003.439-1.934 1.211-2.57a3.359 3.359 0 0 1 2.766-.673l26.477 5.386a3.326 3.326 0 0 1 2.643 3.244v32.412zm0-64.787a3.297 3.297 0 0 1-1.271 2.607 3.273 3.273 0 0 1-2.828.612l-26.475-6.5a3.302 3.302 0 0 1-2.51-3.207v-33.5c0-1.041.49-2.02 1.309-2.644a3.357 3.357 0 0 1 2.902-.539l26.475 7.613a3.308 3.308 0 0 1 2.387 3.183v32.375h.011zm110.002 360.958a3.312 3.312 0 0 1-2.498 3.207l-85.215 21.518a3.475 3.475 0 0 1-.795.099 3.316 3.316 0 0 1-2.031-.698 3.314 3.314 0 0 1-1.273-2.619V326.63c0-.33.514-34.737 48.617-32.926 42.717 1.592 43.207 32.313 43.207 32.632v166.966h-.012zm35.789-61.714a3.312 3.312 0 0 1-2.754 3.256l-17.393 2.95a3.333 3.333 0 0 1-2.693-.722 3.364 3.364 0 0 1-1.176-2.546v-27.062a3.303 3.303 0 0 1 2.877-3.28l17.406-2.24c.941-.122 1.885.184 2.607.796a3.337 3.337 0 0 1 1.125 2.484v26.364h.001zm0-52.693a3.282 3.282 0 0 1-3.023 3.28l-17.404 1.506c-.098.012-.197.012-.281.012-.82 0-1.617-.306-2.24-.856a3.319 3.319 0 0 1-1.066-2.436v-27.075a3.291 3.291 0 0 1 3.158-3.292l17.406-.784a3.19 3.19 0 0 1 2.424.906 3.27 3.27 0 0 1 1.027 2.387v26.352zm0-52.902a3.303 3.303 0 0 1-3.293 3.305l-17.404.062h-.012a3.259 3.259 0 0 1-2.326-.967 3.284 3.284 0 0 1-.967-2.338v-26.843c0-.894.354-1.75 1.004-2.387a3.293 3.293 0 0 1 2.424-.918l17.393.674a3.309 3.309 0 0 1 3.193 3.305v26.107h-.012zm0-52.485c0 .918-.391 1.812-1.064 2.423a3.3 3.3 0 0 1-2.252.881c-.086 0-.184-.012-.258-.012l-17.404-1.383a3.3 3.3 0 0 1-3.037-3.305V245.05c0-.942.404-1.836 1.115-2.473.709-.624 1.652-.93 2.582-.795l17.406 2.105a3.296 3.296 0 0 1 2.912 3.28v26.341zm0-52.681c0 .967-.428 1.885-1.176 2.521-.6.514-1.357.784-2.141.784-.184 0-.355-.012-.527-.049l-17.404-2.815a3.312 3.312 0 0 1-2.779-3.268v-27.075c0-.991.441-1.921 1.213-2.558a3.4 3.4 0 0 1 2.766-.685l17.393 3.549a3.324 3.324 0 0 1 2.656 3.244v26.352zm0-52.693a3.32 3.32 0 0 1-1.26 2.607c-.6.465-1.311.71-2.045.71a2.84 2.84 0 0 1-.783-.098l-17.418-4.272a3.327 3.327 0 0 1-2.51-3.219V136.8c0-1.041.479-2.02 1.322-2.644a3.318 3.318 0 0 1 2.902-.539l17.393 4.994a3.303 3.303 0 0 1 2.398 3.182v26.341zm32.154 257.995a3.31 3.31 0 0 1-2.766 3.256l-15.654 2.668a4.25 4.25 0 0 1-.551.037 3.317 3.317 0 0 1-2.143-.771 3.297 3.297 0 0 1-1.176-2.521V403.13a3.313 3.313 0 0 1 2.889-3.28l15.656-2.008a3.286 3.286 0 0 1 2.605.809 3.262 3.262 0 0 1 1.127 2.472v25.007h.013zm0-50.013a3.315 3.315 0 0 1-3.023 3.305l-15.654 1.347c-.098.012-.195.012-.281.012a3.32 3.32 0 0 1-2.24-.868 3.292 3.292 0 0 1-1.078-2.437V351.82a3.307 3.307 0 0 1 3.172-3.305l15.654-.71a3.235 3.235 0 0 1 2.424.906 3.27 3.27 0 0 1 1.027 2.387v25.018zm0-50.012a3.314 3.314 0 0 1-3.305 3.305l-15.654.062h-.012a3.259 3.259 0 0 1-2.326-.967 3.299 3.299 0 0 1-.98-2.338v-25.668c0-.918.367-1.774 1.018-2.398a3.279 3.279 0 0 1 2.41-.918l15.668.6a3.316 3.316 0 0 1 3.182 3.305v25.017h-.001zm0-50.038c0 .918-.379 1.812-1.064 2.424a3.28 3.28 0 0 1-2.252.881c-.086 0-.172-.012-.258-.012l-15.654-1.236a3.319 3.319 0 0 1-3.049-3.305v-25.667c0-.943.404-1.836 1.127-2.473a3.27 3.27 0 0 1 2.582-.795l15.656 1.885a3.315 3.315 0 0 1 2.912 3.28v25.018zm0-50.024c0 .979-.428 1.897-1.174 2.521a3.296 3.296 0 0 1-2.143.795c-.184 0-.344-.012-.527-.037l-15.654-2.546a3.323 3.323 0 0 1-2.791-3.268V197.84a3.3 3.3 0 0 1 1.225-2.559 3.28 3.28 0 0 1 2.754-.685l15.654 3.194a3.314 3.314 0 0 1 2.656 3.244v25.008zm0-50.013a3.31 3.31 0 0 1-1.273 2.607 3.35 3.35 0 0 1-2.043.698c-.258 0-.527-.025-.795-.098l-15.645-3.831a3.303 3.303 0 0 1-2.521-3.219V146.53c0-1.04.49-2.02 1.322-2.644.82-.637 1.898-.82 2.889-.539l15.656 4.492a3.303 3.303 0 0 1 2.398 3.182v25.006h.012zm29.059 245.179c0 1.616-1.176 2.987-2.768 3.269l-14.16 2.387a2.862 2.862 0 0 1-.551.049 3.271 3.271 0 0 1-2.143-.771 3.314 3.314 0 0 1-1.176-2.521v-24.395a3.303 3.303 0 0 1 2.889-3.28l14.162-1.812a3.325 3.325 0 0 1 2.607.795 3.272 3.272 0 0 1 1.127 2.485v23.794h.013zm0-47.613a3.316 3.316 0 0 1-3.023 3.305l-14.174 1.225c-.086.012-.184.012-.27.012-.82 0-1.629-.306-2.24-.869a3.288 3.288 0 0 1-1.076-2.436v-24.395a3.295 3.295 0 0 1 3.156-3.305l14.176-.648a3.276 3.276 0 0 1 2.422.918 3.263 3.263 0 0 1 1.029 2.387v23.806zm0-47.602a3.325 3.325 0 0 1-3.305 3.317l-14.162.049h-.012a3.287 3.287 0 0 1-2.338-.967 3.284 3.284 0 0 1-.967-2.338v-24.382a3.35 3.35 0 0 1 1.016-2.399 3.26 3.26 0 0 1 2.41-.918l14.174.538a3.32 3.32 0 0 1 3.184 3.317v23.783zm0-47.613c0 .93-.393 1.799-1.064 2.436a3.352 3.352 0 0 1-2.254.869c-.084 0-.184 0-.256-.012l-14.162-1.126a3.317 3.317 0 0 1-3.047-3.305v-24.395c0-.942.402-1.836 1.113-2.473a3.34 3.34 0 0 1 2.594-.808l14.162 1.713a3.315 3.315 0 0 1 2.914 3.28v23.821zm0-47.602c0 .967-.43 1.885-1.176 2.509-.6.514-1.357.783-2.143.783-.184 0-.354-.012-.525-.037l-14.174-2.301c-1.604-.257-2.766-1.653-2.766-3.269v-24.394c0-.992.439-1.922 1.223-2.558a3.385 3.385 0 0 1 2.754-.686l14.162 2.889a3.314 3.314 0 0 1 2.656 3.244v23.819h-.011zm0-47.613a3.27 3.27 0 0 1-1.273 2.595 3.298 3.298 0 0 1-2.045.71 2.85 2.85 0 0 1-.783-.098l-14.16-3.476a3.298 3.298 0 0 1-2.521-3.207v-24.394c0-1.041.488-2.02 1.309-2.644a3.33 3.33 0 0 1 2.9-.539l14.162 4.064a3.314 3.314 0 0 1 2.398 3.182v23.807h.013z" fill="#88d1d1"/></svg>