<svg xmlns="http://www.w3.org/2000/svg" viewBox="0 0 512 512"><circle cx="256" cy="256" r="256" fill="#324a5e"/><path d="M266.516 511.767C403.022 506.251 512 393.861 512 256c0-8.302-.41-16.508-1.183-24.607L405.98 126.555 268.698 273.87 143.084 148.256l-37.064 11.628 132.55 132.549-132.55 58.839 160.496 160.495z" fill="#2b3b4e"/><path d="M261.172 376.685v-52.438h-10.343v52.438c-8.187 2.272-14.222 9.771-14.222 18.673 0 10.693 8.701 19.394 19.394 19.394 10.693 0 19.394-8.701 19.394-19.394-.001-8.9-6.036-16.4-14.223-18.673zM256 404.409c-4.991 0-9.051-4.06-9.051-9.051 0-4.991 4.06-9.051 9.051-9.051s9.051 4.06 9.051 9.051c0 4.992-4.06 9.051-9.051 9.051z" fill="#fff"/><path d="M261.172 376.685v-52.438h-5.746v62.119c.193-.012.378-.059.574-.059 4.991 0 9.051 4.06 9.051 9.051 0 4.991-4.06 9.051-9.051 9.051-.197 0-.381-.045-.574-.059v10.373c.193.005.381.029.574.029 10.693 0 19.394-8.701 19.394-19.394 0-8.9-6.035-16.4-14.222-18.673z" fill="#d0d1d3"/><path fill="#e9eff4" d="M116.364 134.189h279.273v209.455H116.364z"/><path fill="#cfdbe6" d="M255.431 134.189h140.205v209.455H255.431z"/><path d="M106.02 317.94h299.96v33.328H106.02zm0-191.388h299.96v33.328H106.02z" fill="#05bea6"/><path d="M255.431 317.94H405.98v33.328H255.431zm0-191.388H405.98v33.328H255.431z" fill="#2c9984"/><circle cx="183.596" cy="238.916" r="56.889" fill="#ffc61b"/><path d="M126.707 238.913c0-31.418 25.471-56.889 56.889-56.889v56.889h-56.889z" fill="#d35933"/><path d="M284.444 210.472h85.333v5.172h-85.333zm0 20.031h85.333v5.172h-85.333zm0 20.049h85.333v5.172h-85.333z" fill="#808183"/></svg>